<svg width="221" height="220" viewBox="0 0 221 220" fill="none" xmlns="http://www.w3.org/2000/svg">
<path d="M60.3289 -0.000976562H53.6766V6.65131H60.3289V-0.000976562Z" fill="white"/>
<path d="M67.0404 -0.000976562H60.3881V6.65131H67.0404V-0.000976562Z" fill="white"/>
<path d="M80.3592 -0.000976562H73.7069V6.65131H80.3592V-0.000976562Z" fill="white"/>
<path d="M93.663 -0.000976562H87.0107V6.65131H93.663V-0.000976562Z" fill="white"/>
<path d="M100.315 -0.000976562H93.6626V6.65131H100.315V-0.000976562Z" fill="white"/>
<path d="M113.619 -0.000976562H106.967V6.65131H113.619V-0.000976562Z" fill="white"/>
<path d="M120.242 -0.000976562H113.589V6.65131H120.242V-0.000976562Z" fill="white"/>
<path d="M126.879 -0.000976562H120.227V6.65131H126.879V-0.000976562Z" fill="white"/>
<path d="M146.864 -0.000976562H140.212V6.65131H146.864V-0.000976562Z" fill="white"/>
<path d="M60.3289 6.65112H53.6766V13.3034H60.3289V6.65112Z" fill="white"/>
<path d="M73.7067 6.65112H67.0544V13.3034H73.7067V6.65112Z" fill="white"/>
<path d="M86.9665 6.65112H80.3142V13.3034H86.9665V6.65112Z" fill="white"/>
<path d="M93.663 6.65112H87.0107V13.3034H93.663V6.65112Z" fill="white"/>
<path d="M100.315 6.65112H93.6626V13.3034H100.315V6.65112Z" fill="white"/>
<path d="M113.619 6.65112H106.967V13.3034H113.619V6.65112Z" fill="white"/>
<path d="M120.242 6.65112H113.589V13.3034H120.242V6.65112Z" fill="white"/>
<path d="M126.879 6.65112H120.227V13.3034H126.879V6.65112Z" fill="white"/>
<path d="M133.56 6.65112H126.908V13.3034H133.56V6.65112Z" fill="white"/>
<path d="M140.212 6.65112H133.56V13.3034H140.212V6.65112Z" fill="white"/>
<path d="M153.532 6.65112H146.88V13.3034H153.532V6.65112Z" fill="white"/>
<path d="M60.3289 13.3105H53.6766V19.9628H60.3289V13.3105Z" fill="white"/>
<path d="M67.0404 13.3105H60.3881V19.9628H67.0404V13.3105Z" fill="white"/>
<path d="M73.7067 13.3105H67.0544V19.9628H73.7067V13.3105Z" fill="white"/>
<path d="M80.3592 13.3105H73.7069V19.9628H80.3592V13.3105Z" fill="white"/>
<path d="M86.9665 13.3105H80.3142V19.9628H86.9665V13.3105Z" fill="white"/>
<path d="M93.663 13.3105H87.0107V19.9628H93.663V13.3105Z" fill="white"/>
<path d="M100.315 13.3105H93.6626V19.9628H100.315V13.3105Z" fill="white"/>
<path d="M113.619 13.3105H106.967V19.9628H113.619V13.3105Z" fill="white"/>
<path d="M133.56 13.3105H126.908V19.9628H133.56V13.3105Z" fill="white"/>
<path d="M140.212 13.3105H133.56V19.9628H140.212V13.3105Z" fill="white"/>
<path d="M146.864 13.3105H140.212V19.9628H146.864V13.3105Z" fill="white"/>
<path d="M160.139 13.3105H153.487V19.9628H160.139V13.3105Z" fill="white"/>
<path d="M166.851 13.3105H160.198V19.9628H166.851V13.3105Z" fill="white"/>
<path d="M67.0404 19.9551H60.3881V26.6074H67.0404V19.9551Z" fill="white"/>
<path d="M73.7067 19.9551H67.0544V26.6074H73.7067V19.9551Z" fill="white"/>
<path d="M80.3592 19.9551H73.7069V26.6074H80.3592V19.9551Z" fill="white"/>
<path d="M100.315 19.9551H93.6626V26.6074H100.315V19.9551Z" fill="white"/>
<path d="M113.619 19.9551H106.967V26.6074H113.619V19.9551Z" fill="white"/>
<path d="M120.242 19.9551H113.589V26.6074H120.242V19.9551Z" fill="white"/>
<path d="M140.212 19.9551H133.56V26.6074H140.212V19.9551Z" fill="white"/>
<path d="M166.851 19.9551H160.198V26.6074H166.851V19.9551Z" fill="white"/>
<path d="M60.3289 26.6072H53.6766V33.2595H60.3289V26.6072Z" fill="white"/>
<path d="M73.7067 26.6072H67.0544V33.2595H73.7067V26.6072Z" fill="white"/>
<path d="M93.663 26.6072H87.0107V33.2595H93.663V26.6072Z" fill="white"/>
<path d="M106.982 26.6072H100.33V33.2595H106.982V26.6072Z" fill="white"/>
<path d="M113.619 26.6072H106.967V33.2595H113.619V26.6072Z" fill="white"/>
<path d="M133.56 26.6072H126.908V33.2595H133.56V26.6072Z" fill="white"/>
<path d="M146.864 26.6072H140.212V33.2595H146.864V26.6072Z" fill="white"/>
<path d="M153.532 26.6072H146.88V33.2595H153.532V26.6072Z" fill="white"/>
<path d="M93.663 33.259H87.0107V39.9113H93.663V33.259Z" fill="white"/>
<path d="M100.315 33.259H93.6626V39.9113H100.315V33.259Z" fill="white"/>
<path d="M106.982 33.259H100.33V39.9113H106.982V33.259Z" fill="white"/>
<path d="M113.619 33.259H106.967V39.9113H113.619V33.259Z" fill="white"/>
<path d="M140.212 33.259H133.56V39.9113H140.212V33.259Z" fill="white"/>
<path d="M160.139 33.259H153.487V39.9113H160.139V33.259Z" fill="white"/>
<path d="M166.851 33.259H160.198V39.9113H166.851V33.259Z" fill="white"/>
<path d="M60.3289 39.9114H53.6766V46.5637H60.3289V39.9114Z" fill="white"/>
<path d="M73.7067 39.9114H67.0544V46.5637H73.7067V39.9114Z" fill="white"/>
<path d="M86.9665 39.9114H80.3142V46.5637H86.9665V39.9114Z" fill="white"/>
<path d="M100.315 39.9114H93.6626V46.5637H100.315V39.9114Z" fill="white"/>
<path d="M113.619 39.9114H106.967V46.5637H113.619V39.9114Z" fill="white"/>
<path d="M126.879 39.9114H120.227V46.5637H126.879V39.9114Z" fill="white"/>
<path d="M140.212 39.9114H133.56V46.5637H140.212V39.9114Z" fill="white"/>
<path d="M153.532 39.9114H146.88V46.5637H153.532V39.9114Z" fill="white"/>
<path d="M166.851 39.9114H160.198V46.5637H166.851V39.9114Z" fill="white"/>
<path d="M67.0404 46.571H60.3881V53.2233H67.0404V46.571Z" fill="white"/>
<path d="M80.3592 46.571H73.7069V53.2233H80.3592V46.571Z" fill="white"/>
<path d="M93.663 46.571H87.0107V53.2233H93.663V46.571Z" fill="white"/>
<path d="M100.315 46.571H93.6626V53.2233H100.315V46.571Z" fill="white"/>
<path d="M106.982 46.571H100.33V53.2233H106.982V46.571Z" fill="white"/>
<path d="M113.619 46.571H106.967V53.2233H113.619V46.571Z" fill="white"/>
<path d="M133.56 46.571H126.908V53.2233H133.56V46.571Z" fill="white"/>
<path d="M7.17158 53.2153H0.519287V59.8676H7.17158V53.2153Z" fill="white"/>
<path d="M27.1868 53.2153H20.5345V59.8676H27.1868V53.2153Z" fill="white"/>
<path d="M33.7797 53.2153H27.1274V59.8676H33.7797V53.2153Z" fill="white"/>
<path d="M40.4316 53.2153H33.7793V59.8676H40.4316V53.2153Z" fill="white"/>
<path d="M47.0251 53.2153H40.3728V59.8676H47.0251V53.2153Z" fill="white"/>
<path d="M53.6915 53.2153H47.0392V59.8676H53.6915V53.2153Z" fill="white"/>
<path d="M60.3289 53.2153H53.6766V59.8676H60.3289V53.2153Z" fill="white"/>
<path d="M67.0404 53.2153H60.3881V59.8676H67.0404V53.2153Z" fill="white"/>
<path d="M86.9665 53.2153H80.3142V59.8676H86.9665V53.2153Z" fill="white"/>
<path d="M100.315 53.2153H93.6626V59.8676H100.315V53.2153Z" fill="white"/>
<path d="M120.242 53.2153H113.589V59.8676H120.242V53.2153Z" fill="white"/>
<path d="M133.56 53.2153H126.908V59.8676H133.56V53.2153Z" fill="white"/>
<path d="M140.212 53.2153H133.56V59.8676H140.212V53.2153Z" fill="white"/>
<path d="M173.458 53.2153H166.806V59.8676H173.458V53.2153Z" fill="white"/>
<path d="M193.429 53.2153H186.777V59.8676H193.429V53.2153Z" fill="white"/>
<path d="M206.719 53.2153H200.066V59.8676H206.719V53.2153Z" fill="white"/>
<path d="M213.4 53.2153H206.748V59.8676H213.4V53.2153Z" fill="white"/>
<path d="M220.007 53.2153H213.355V59.8676H220.007V53.2153Z" fill="white"/>
<path d="M7.17158 59.875H0.519287V66.5273H7.17158V59.875Z" fill="white"/>
<path d="M20.4754 59.875H13.8231V66.5273H20.4754V59.875Z" fill="white"/>
<path d="M60.3289 59.875H53.6766V66.5273H60.3289V59.875Z" fill="white"/>
<path d="M67.0404 59.875H60.3881V66.5273H67.0404V59.875Z" fill="white"/>
<path d="M73.7067 59.875H67.0544V66.5273H73.7067V59.875Z" fill="white"/>
<path d="M80.3592 59.875H73.7069V66.5273H80.3592V59.875Z" fill="white"/>
<path d="M93.663 59.875H87.0107V66.5273H93.663V59.875Z" fill="white"/>
<path d="M100.315 59.875H93.6626V66.5273H100.315V59.875Z" fill="white"/>
<path d="M106.982 59.875H100.33V66.5273H106.982V59.875Z" fill="white"/>
<path d="M126.879 59.875H120.227V66.5273H126.879V59.875Z" fill="white"/>
<path d="M133.56 59.875H126.908V66.5273H133.56V59.875Z" fill="white"/>
<path d="M146.864 59.875H140.212V66.5273H146.864V59.875Z" fill="white"/>
<path d="M153.532 59.875H146.88V66.5273H153.532V59.875Z" fill="white"/>
<path d="M160.139 59.875H153.487V66.5273H160.139V59.875Z" fill="white"/>
<path d="M193.429 59.875H186.777V66.5273H193.429V59.875Z" fill="white"/>
<path d="M200.051 59.875H193.399V66.5273H200.051V59.875Z" fill="white"/>
<path d="M206.719 59.875H200.066V66.5273H206.719V59.875Z" fill="white"/>
<path d="M7.17158 66.5266H0.519287V73.1789H7.17158V66.5266Z" fill="white"/>
<path d="M13.7789 66.5269H7.12659V73.1791H13.7789V66.5269Z" fill="white"/>
<path d="M20.4754 66.5269H13.8231V73.1791H20.4754V66.5269Z" fill="white"/>
<path d="M27.1871 66.5266H20.5348V73.1789H27.1871V66.5266Z" fill="white"/>
<path d="M33.7797 66.5269H27.1274V73.1791H33.7797V66.5269Z" fill="white"/>
<path d="M40.4316 66.5269H33.7793V73.1791H40.4316V66.5269Z" fill="white"/>
<path d="M47.0251 66.5269H40.3728V73.1791H47.0251V66.5269Z" fill="white"/>
<path d="M60.3289 66.5269H53.6766V73.1791H60.3289V66.5269Z" fill="white"/>
<path d="M80.3592 66.5269H73.7069V73.1791H80.3592V66.5269Z" fill="white"/>
<path d="M93.663 66.5269H87.0107V73.1791H93.663V66.5269Z" fill="white"/>
<path d="M106.982 66.5269H100.33V73.1791H106.982V66.5269Z" fill="white"/>
<path d="M120.242 66.5266H113.589V73.1789H120.242V66.5266Z" fill="white"/>
<path d="M153.532 66.5269H146.88V73.1791H153.532V66.5269Z" fill="white"/>
<path d="M160.139 66.5269H153.487V73.1791H160.139V66.5269Z" fill="white"/>
<path d="M180.11 66.5269H173.458V73.1791H180.11V66.5269Z" fill="white"/>
<path d="M193.429 66.5269H186.777V73.1791H193.429V66.5269Z" fill="white"/>
<path d="M200.051 66.5269H193.399V73.1791H200.051V66.5269Z" fill="white"/>
<path d="M206.719 66.5269H200.066V73.1791H206.719V66.5269Z" fill="white"/>
<path d="M213.4 66.5269H206.748V73.1791H213.4V66.5269Z" fill="white"/>
<path d="M220.007 66.5269H213.355V73.1791H220.007V66.5269Z" fill="white"/>
<path d="M13.7789 73.1792H7.12659V79.8315H13.7789V73.1792Z" fill="white"/>
<path d="M33.7797 73.1792H27.1274V79.8315H33.7797V73.1792Z" fill="white"/>
<path d="M40.4316 73.1792H33.7793V79.8315H40.4316V73.1792Z" fill="white"/>
<path d="M53.6915 73.1792H47.0392V79.8315H53.6915V73.1792Z" fill="white"/>
<path d="M60.3289 73.1792H53.6766V79.8315H60.3289V73.1792Z" fill="white"/>
<path d="M73.7067 73.1792H67.0544V79.8315H73.7067V73.1792Z" fill="white"/>
<path d="M80.3592 73.1792H73.7069V79.8315H80.3592V73.1792Z" fill="white"/>
<path d="M86.9665 73.1792H80.3142V79.8315H86.9665V73.1792Z" fill="white"/>
<path d="M93.663 73.1792H87.0107V79.8315H93.663V73.1792Z" fill="white"/>
<path d="M106.982 73.1792H100.33V79.8315H106.982V73.1792Z" fill="white"/>
<path d="M113.619 73.1792H106.967V79.8315H113.619V73.1792Z" fill="white"/>
<path d="M120.242 73.1792H113.589V79.8315H120.242V73.1792Z" fill="white"/>
<path d="M126.879 73.1792H120.227V79.8315H126.879V73.1792Z" fill="white"/>
<path d="M133.56 73.1792H126.908V79.8315H133.56V73.1792Z" fill="white"/>
<path d="M160.139 73.1792H153.487V79.8315H160.139V73.1792Z" fill="white"/>
<path d="M173.458 73.1792H166.806V79.8315H173.458V73.1792Z" fill="white"/>
<path d="M186.807 73.1792H180.155V79.8315H186.807V73.1792Z" fill="white"/>
<path d="M206.719 73.1792H200.066V79.8315H206.719V73.1792Z" fill="white"/>
<path d="M213.4 73.1792H206.748V79.8315H213.4V73.1792Z" fill="white"/>
<path d="M220.007 73.1792H213.355V79.8315H220.007V73.1792Z" fill="white"/>
<path d="M7.17158 79.8311H0.519287V86.4833H7.17158V79.8311Z" fill="white"/>
<path d="M13.7789 79.8311H7.12659V86.4833H13.7789V79.8311Z" fill="white"/>
<path d="M20.4754 79.8311H13.8231V86.4833H20.4754V79.8311Z" fill="white"/>
<path d="M27.1871 79.8311H20.5348V86.4833H27.1871V79.8311Z" fill="white"/>
<path d="M47.0251 79.8311H40.3728V86.4833H47.0251V79.8311Z" fill="white"/>
<path d="M60.3289 79.8311H53.6766V86.4833H60.3289V79.8311Z" fill="white"/>
<path d="M73.7067 79.8311H67.0544V86.4833H73.7067V79.8311Z" fill="white"/>
<path d="M80.3592 79.8311H73.7069V86.4833H80.3592V79.8311Z" fill="white"/>
<path d="M93.663 79.8311H87.0107V86.4833H93.663V79.8311Z" fill="white"/>
<path d="M106.982 79.8311H100.33V86.4833H106.982V79.8311Z" fill="white"/>
<path d="M113.619 79.8311H106.967V86.4833H113.619V79.8311Z" fill="white"/>
<path d="M126.879 79.8311H120.227V86.4833H126.879V79.8311Z" fill="white"/>
<path d="M133.56 79.8311H126.908V86.4833H133.56V79.8311Z" fill="white"/>
<path d="M140.212 79.8311H133.56V86.4833H140.212V79.8311Z" fill="white"/>
<path d="M166.851 79.8311H160.198V86.4833H166.851V79.8311Z" fill="white"/>
<path d="M180.11 79.8311H173.458V86.4833H180.11V79.8311Z" fill="white"/>
<path d="M7.17158 86.4756H0.519287V93.1279H7.17158V86.4756Z" fill="white"/>
<path d="M20.4754 86.4756H13.8231V93.1279H20.4754V86.4756Z" fill="white"/>
<path d="M33.7797 86.4756H27.1274V93.1279H33.7797V86.4756Z" fill="white"/>
<path d="M40.4316 86.4756H33.7793V93.1279H40.4316V86.4756Z" fill="white"/>
<path d="M80.3592 86.4756H73.7069V93.1279H80.3592V86.4756Z" fill="white"/>
<path d="M86.9665 86.4756H80.3142V93.1279H86.9665V86.4756Z" fill="white"/>
<path d="M93.663 86.4756H87.0107V93.1279H93.663V86.4756Z" fill="white"/>
<path d="M100.315 86.4756H93.6626V93.1279H100.315V86.4756Z" fill="white"/>
<path d="M126.879 86.4756H120.227V93.1279H126.879V86.4756Z" fill="white"/>
<path d="M153.532 86.4756H146.88V93.1279H153.532V86.4756Z" fill="white"/>
<path d="M160.139 86.4756H153.487V93.1279H160.139V86.4756Z" fill="white"/>
<path d="M186.807 86.4756H180.155V93.1279H186.807V86.4756Z" fill="white"/>
<path d="M13.7789 93.135H7.12659V99.7873H13.7789V93.135Z" fill="white"/>
<path d="M20.4754 93.135H13.8231V99.7873H20.4754V93.135Z" fill="white"/>
<path d="M27.1871 93.1355H20.5348V99.7878H27.1871V93.1355Z" fill="white"/>
<path d="M33.7797 93.135H27.1274V99.7873H33.7797V93.135Z" fill="white"/>
<path d="M47.0251 93.135H40.3728V99.7873H47.0251V93.135Z" fill="white"/>
<path d="M60.3289 93.135H53.6766V99.7873H60.3289V93.135Z" fill="white"/>
<path d="M67.0404 93.135H60.3881V99.7873H67.0404V93.135Z" fill="white"/>
<path d="M80.3592 93.135H73.7069V99.7873H80.3592V93.135Z" fill="white"/>
<path d="M86.9665 93.135H80.3142V99.7873H86.9665V93.135Z" fill="white"/>
<path d="M106.982 93.135H100.33V99.7873H106.982V93.135Z" fill="white"/>
<path d="M113.619 93.135H106.967V99.7873H113.619V93.135Z" fill="white"/>
<path d="M120.242 93.1355H113.589V99.7878H120.242V93.1355Z" fill="white"/>
<path d="M126.879 93.135H120.227V99.7873H126.879V93.135Z" fill="white"/>
<path d="M133.56 93.135H126.908V99.7873H133.56V93.135Z" fill="white"/>
<path d="M146.864 93.135H140.212V99.7873H146.864V93.135Z" fill="white"/>
<path d="M153.532 93.135H146.88V99.7873H153.532V93.135Z" fill="white"/>
<path d="M180.11 93.135H173.458V99.7873H180.11V93.135Z" fill="white"/>
<path d="M206.719 93.135H200.066V99.7873H206.719V93.135Z" fill="white"/>
<path d="M7.17158 99.78H0.519287V106.432H7.17158V99.78Z" fill="white"/>
<path d="M20.4754 99.7798H13.8231V106.432H20.4754V99.7798Z" fill="white"/>
<path d="M53.6915 99.7798H47.0392V106.432H53.6915V99.7798Z" fill="white"/>
<path d="M60.3289 99.7798H53.6766V106.432H60.3289V99.7798Z" fill="white"/>
<path d="M67.0404 99.7798H60.3881V106.432H67.0404V99.7798Z" fill="white"/>
<path d="M73.7067 99.7798H67.0544V106.432H73.7067V99.7798Z" fill="white"/>
<path d="M86.9665 99.7874H80.3142V106.44H86.9665V99.7874Z" fill="white"/>
<path d="M93.663 99.7798H87.0107V106.432H93.663V99.7798Z" fill="white"/>
<path d="M100.315 99.7798H93.6626V106.432H100.315V99.7798Z" fill="white"/>
<path d="M133.56 99.7798H126.908V106.432H133.56V99.7798Z" fill="white"/>
<path d="M140.212 99.7798H133.56V106.432H140.212V99.7798Z" fill="white"/>
<path d="M160.139 99.7798H153.487V106.432H160.139V99.7798Z" fill="white"/>
<path d="M173.458 99.7798H166.806V106.432H173.458V99.7798Z" fill="white"/>
<path d="M186.807 99.7798H180.155V106.432H186.807V99.7798Z" fill="white"/>
<path d="M200.051 99.7874H193.399V106.44H200.051V99.7874Z" fill="white"/>
<path d="M206.719 99.7798H200.066V106.432H206.719V99.7798Z" fill="white"/>
<path d="M220.007 99.7798H213.355V106.432H220.007V99.7798Z" fill="white"/>
<path d="M27.1868 106.432H20.5345V113.084H27.1868V106.432Z" fill="white"/>
<path d="M40.4316 106.432H33.7793V113.084H40.4316V106.432Z" fill="white"/>
<path d="M47.0251 106.432H40.3728V113.084H47.0251V106.432Z" fill="white"/>
<path d="M73.7067 106.432H67.0544V113.084H73.7067V106.432Z" fill="white"/>
<path d="M80.3592 106.439H73.7069V113.092H80.3592V106.439Z" fill="white"/>
<path d="M153.532 106.439H146.88V113.092H153.532V106.439Z" fill="white"/>
<path d="M166.851 106.432H160.198V113.084H166.851V106.432Z" fill="white"/>
<path d="M173.458 106.432H166.806V113.084H173.458V106.432Z" fill="white"/>
<path d="M180.11 106.432H173.458V113.084H180.11V106.432Z" fill="white"/>
<path d="M186.807 106.432H180.155V113.084H186.807V106.432Z" fill="white"/>
<path d="M193.429 106.432H186.777V113.084H193.429V106.432Z" fill="white"/>
<path d="M20.4754 113.076H13.8231V119.729H20.4754V113.076Z" fill="white"/>
<path d="M27.1868 113.076H20.5345V119.729H27.1868V113.076Z" fill="white"/>
<path d="M53.6915 113.076H47.0392V119.729H53.6915V113.076Z" fill="white"/>
<path d="M93.663 113.076H87.0107V119.729H93.663V113.076Z" fill="white"/>
<path d="M106.982 113.076H100.33V119.729H106.982V113.076Z" fill="white"/>
<path d="M126.879 113.076H120.227V119.729H126.879V113.076Z" fill="white"/>
<path d="M133.56 113.076H126.908V119.729H133.56V113.076Z" fill="white"/>
<path d="M140.212 113.076H133.56V119.729H140.212V113.076Z" fill="white"/>
<path d="M166.851 113.076H160.198V119.729H166.851V113.076Z" fill="white"/>
<path d="M180.11 113.076H173.458V119.729H180.11V113.076Z" fill="white"/>
<path d="M193.429 113.076H186.777V119.729H193.429V113.076Z" fill="white"/>
<path d="M206.719 113.076H200.066V119.729H206.719V113.076Z" fill="white"/>
<path d="M220.007 113.076H213.355V119.729H220.007V113.076Z" fill="white"/>
<path d="M13.7789 119.743H7.12659V126.395H13.7789V119.743Z" fill="white"/>
<path d="M33.7797 119.743H27.1274V126.395H33.7797V119.743Z" fill="white"/>
<path d="M47.0251 119.743H40.3728V126.395H47.0251V119.743Z" fill="white"/>
<path d="M60.3289 119.743H53.6766V126.395H60.3289V119.743Z" fill="white"/>
<path d="M73.7067 119.743H67.0544V126.395H73.7067V119.743Z" fill="white"/>
<path d="M80.3592 119.743H73.7069V126.395H80.3592V119.743Z" fill="white"/>
<path d="M106.982 119.743H100.33V126.395H106.982V119.743Z" fill="white"/>
<path d="M133.56 119.743H126.908V126.395H133.56V119.743Z" fill="white"/>
<path d="M140.212 119.743H133.56V126.395H140.212V119.743Z" fill="white"/>
<path d="M153.532 119.743H146.88V126.395H153.532V119.743Z" fill="white"/>
<path d="M160.139 119.743H153.487V126.395H160.139V119.743Z" fill="white"/>
<path d="M166.851 119.743H160.198V126.395H166.851V119.743Z" fill="white"/>
<path d="M173.458 119.743H166.806V126.395H173.458V119.743Z" fill="white"/>
<path d="M180.11 119.743H173.458V126.395H180.11V119.743Z" fill="white"/>
<path d="M186.807 119.743H180.155V126.395H186.807V119.743Z" fill="white"/>
<path d="M200.051 119.736H193.399V126.388H200.051V119.736Z" fill="white"/>
<path d="M206.719 119.743H200.066V126.395H206.719V119.743Z" fill="white"/>
<path d="M213.4 119.743H206.748V126.395H213.4V119.743Z" fill="white"/>
<path d="M220.007 119.743H213.355V126.395H220.007V119.743Z" fill="white"/>
<path d="M13.7789 126.396H7.12659V133.048H13.7789V126.396Z" fill="white"/>
<path d="M20.4754 126.396H13.8231V133.048H20.4754V126.396Z" fill="white"/>
<path d="M27.1868 126.396H20.5345V133.048H27.1868V126.396Z" fill="white"/>
<path d="M53.6915 126.396H47.0392V133.048H53.6915V126.396Z" fill="white"/>
<path d="M73.7067 126.396H67.0544V133.048H73.7067V126.396Z" fill="white"/>
<path d="M100.315 126.396H93.6626V133.048H100.315V126.396Z" fill="white"/>
<path d="M113.619 126.396H106.967V133.048H113.619V126.396Z" fill="white"/>
<path d="M126.879 126.396H120.227V133.048H126.879V126.396Z" fill="white"/>
<path d="M166.851 126.396H160.198V133.048H166.851V126.396Z" fill="white"/>
<path d="M173.458 126.396H166.806V133.048H173.458V126.396Z" fill="white"/>
<path d="M193.429 126.396H186.777V133.048H193.429V126.396Z" fill="white"/>
<path d="M200.051 126.396H193.399V133.048H200.051V126.396Z" fill="white"/>
<path d="M206.719 126.396H200.066V133.048H206.719V126.396Z" fill="white"/>
<path d="M13.7789 133.04H7.12659V139.692H13.7789V133.04Z" fill="white"/>
<path d="M20.4754 133.04H13.8231V139.692H20.4754V133.04Z" fill="white"/>
<path d="M47.0251 133.04H40.3728V139.692H47.0251V133.04Z" fill="white"/>
<path d="M53.6915 133.04H47.0392V139.692H53.6915V133.04Z" fill="white"/>
<path d="M60.3289 133.04H53.6766V139.692H60.3289V133.04Z" fill="white"/>
<path d="M67.0404 133.04H60.3881V139.692H67.0404V133.04Z" fill="white"/>
<path d="M73.7067 133.04H67.0544V139.692H73.7067V133.04Z" fill="white"/>
<path d="M93.663 133.04H87.0107V139.692H93.663V133.04Z" fill="white"/>
<path d="M106.982 133.04H100.33V139.692H106.982V133.04Z" fill="white"/>
<path d="M113.619 133.04H106.967V139.692H113.619V133.04Z" fill="white"/>
<path d="M120.242 133.04H113.589V139.692H120.242V133.04Z" fill="white"/>
<path d="M140.212 133.04H133.56V139.692H140.212V133.04Z" fill="white"/>
<path d="M166.851 133.04H160.198V139.692H166.851V133.04Z" fill="white"/>
<path d="M186.807 133.04H180.155V139.692H186.807V133.04Z" fill="white"/>
<path d="M200.051 133.04H193.399V139.692H200.051V133.04Z" fill="white"/>
<path d="M220.007 133.04H213.355V139.692H220.007V133.04Z" fill="white"/>
<path d="M7.17158 139.699H0.519287V146.352H7.17158V139.699Z" fill="white"/>
<path d="M33.7797 139.699H27.1274V146.352H33.7797V139.699Z" fill="white"/>
<path d="M40.4316 139.699H33.7793V146.352H40.4316V139.699Z" fill="white"/>
<path d="M60.3289 139.699H53.6766V146.352H60.3289V139.699Z" fill="white"/>
<path d="M67.0404 139.699H60.3881V146.352H67.0404V139.699Z" fill="white"/>
<path d="M80.3592 139.699H73.7069V146.352H80.3592V139.699Z" fill="white"/>
<path d="M86.9665 139.699H80.3142V146.352H86.9665V139.699Z" fill="white"/>
<path d="M106.982 139.699H100.33V146.352H106.982V139.699Z" fill="white"/>
<path d="M120.242 139.699H113.589V146.352H120.242V139.699Z" fill="white"/>
<path d="M126.879 139.699H120.227V146.352H126.879V139.699Z" fill="white"/>
<path d="M133.56 139.699H126.908V146.352H133.56V139.699Z" fill="white"/>
<path d="M153.532 139.699H146.88V146.352H153.532V139.699Z" fill="white"/>
<path d="M160.139 139.699H153.487V146.352H160.139V139.699Z" fill="white"/>
<path d="M173.458 139.699H166.806V146.352H173.458V139.699Z" fill="white"/>
<path d="M180.11 139.699H173.458V146.352H180.11V139.699Z" fill="white"/>
<path d="M193.429 139.699H186.777V146.352H193.429V139.699Z" fill="white"/>
<path d="M200.051 139.699H193.399V146.352H200.051V139.699Z" fill="white"/>
<path d="M206.719 139.699H200.066V146.352H206.719V139.699Z" fill="white"/>
<path d="M7.17158 146.344H0.519287V152.997H7.17158V146.344Z" fill="white"/>
<path d="M27.1868 146.351H20.5345V153.004H27.1868V146.351Z" fill="white"/>
<path d="M33.7797 146.351H27.1274V153.004H33.7797V146.351Z" fill="white"/>
<path d="M47.0251 146.351H40.3728V153.004H47.0251V146.351Z" fill="white"/>
<path d="M53.6915 146.351H47.0392V153.004H53.6915V146.351Z" fill="white"/>
<path d="M67.0404 146.351H60.3881V153.004H67.0404V146.351Z" fill="white"/>
<path d="M86.9665 146.351H80.3142V153.004H86.9665V146.351Z" fill="white"/>
<path d="M93.663 146.351H87.0107V153.004H93.663V146.351Z" fill="white"/>
<path d="M106.982 146.351H100.33V153.004H106.982V146.351Z" fill="white"/>
<path d="M113.619 146.351H106.967V153.004H113.619V146.351Z" fill="white"/>
<path d="M126.879 146.351H120.227V153.004H126.879V146.351Z" fill="white"/>
<path d="M146.864 146.351H140.212V153.004H146.864V146.351Z" fill="white"/>
<path d="M153.532 146.344H146.88V152.997H153.532V146.344Z" fill="white"/>
<path d="M160.139 146.351H153.487V153.004H160.139V146.351Z" fill="white"/>
<path d="M180.11 146.351H173.458V153.004H180.11V146.351Z" fill="white"/>
<path d="M186.807 146.351H180.155V153.004H186.807V146.351Z" fill="white"/>
<path d="M200.051 146.351H193.399V153.004H200.051V146.351Z" fill="white"/>
<path d="M206.719 146.351H200.066V153.004H206.719V146.351Z" fill="white"/>
<path d="M213.4 146.351H206.748V153.004H213.4V146.351Z" fill="white"/>
<path d="M220.007 146.351H213.355V153.004H220.007V146.351Z" fill="white"/>
<path d="M7.17158 152.996H0.519287V159.648H7.17158V152.996Z" fill="white"/>
<path d="M20.4754 152.996H13.8231V159.648H20.4754V152.996Z" fill="white"/>
<path d="M27.1868 152.996H20.5345V159.648H27.1868V152.996Z" fill="white"/>
<path d="M33.7797 152.996H27.1274V159.648H33.7797V152.996Z" fill="white"/>
<path d="M40.4316 152.996H33.7793V159.648H40.4316V152.996Z" fill="white"/>
<path d="M67.0404 152.996H60.3881V159.648H67.0404V152.996Z" fill="white"/>
<path d="M73.7067 152.996H67.0544V159.648H73.7067V152.996Z" fill="white"/>
<path d="M86.9665 152.996H80.3142V159.648H86.9665V152.996Z" fill="white"/>
<path d="M100.315 152.996H93.6626V159.648H100.315V152.996Z" fill="white"/>
<path d="M120.242 152.996H113.589V159.648H120.242V152.996Z" fill="white"/>
<path d="M153.532 152.996H146.88V159.648H153.532V152.996Z" fill="white"/>
<path d="M166.851 152.996H160.198V159.648H166.851V152.996Z" fill="white"/>
<path d="M173.458 152.996H166.806V159.648H173.458V152.996Z" fill="white"/>
<path d="M186.807 152.996H180.155V159.648H186.807V152.996Z" fill="white"/>
<path d="M206.719 152.996H200.066V159.648H206.719V152.996Z" fill="white"/>
<path d="M213.4 152.996H206.748V159.648H213.4V152.996Z" fill="white"/>
<path d="M220.007 152.996H213.355V159.648H220.007V152.996Z" fill="white"/>
<path d="M7.17158 159.648H0.519287V166.3H7.17158V159.648Z" fill="white"/>
<path d="M13.7789 159.648H7.12659V166.3H13.7789V159.648Z" fill="white"/>
<path d="M20.4754 159.648H13.8231V166.3H20.4754V159.648Z" fill="white"/>
<path d="M33.7797 159.648H27.1274V166.3H33.7797V159.648Z" fill="white"/>
<path d="M40.4316 159.648H33.7793V166.3H40.4316V159.648Z" fill="white"/>
<path d="M47.0251 159.648H40.3728V166.3H47.0251V159.648Z" fill="white"/>
<path d="M53.6915 159.648H47.0392V166.3H53.6915V159.648Z" fill="white"/>
<path d="M60.3289 159.648H53.6766V166.3H60.3289V159.648Z" fill="white"/>
<path d="M80.3592 159.648H73.7069V166.3H80.3592V159.648Z" fill="white"/>
<path d="M86.9665 159.648H80.3142V166.3H86.9665V159.648Z" fill="white"/>
<path d="M100.315 159.648H93.6626V166.3H100.315V159.648Z" fill="white"/>
<path d="M140.212 159.648H133.56V166.3H140.212V159.648Z" fill="white"/>
<path d="M160.139 159.648H153.487V166.3H160.139V159.648Z" fill="white"/>
<path d="M166.851 159.648H160.198V166.3H166.851V159.648Z" fill="white"/>
<path d="M173.458 159.648H166.806V166.3H173.458V159.648Z" fill="white"/>
<path d="M180.11 159.648H173.458V166.3H180.11V159.648Z" fill="white"/>
<path d="M186.807 159.648H180.155V166.3H186.807V159.648Z" fill="white"/>
<path d="M193.429 159.648H186.777V166.3H193.429V159.648Z" fill="white"/>
<path d="M200.051 159.648H193.399V166.3H200.051V159.648Z" fill="white"/>
<path d="M213.4 159.648H206.748V166.3H213.4V159.648Z" fill="white"/>
<path d="M60.3289 166.315H53.6766V172.967H60.3289V166.315Z" fill="white"/>
<path d="M80.3592 166.315H73.7069V172.967H80.3592V166.315Z" fill="white"/>
<path d="M86.9665 166.315H80.3142V172.967H86.9665V166.315Z" fill="white"/>
<path d="M93.663 166.315H87.0107V172.967H93.663V166.315Z" fill="white"/>
<path d="M100.315 166.315H93.6626V172.967H100.315V166.315Z" fill="white"/>
<path d="M106.982 166.315H100.33V172.967H106.982V166.315Z" fill="white"/>
<path d="M113.619 166.315H106.967V172.967H113.619V166.315Z" fill="white"/>
<path d="M120.242 166.315H113.589V172.967H120.242V166.315Z" fill="white"/>
<path d="M126.879 166.315H120.227V172.967H126.879V166.315Z" fill="white"/>
<path d="M140.212 166.315H133.56V172.967H140.212V166.315Z" fill="white"/>
<path d="M160.139 166.315H153.487V172.967H160.139V166.315Z" fill="white"/>
<path d="M166.851 166.315H160.198V172.967H166.851V166.315Z" fill="white"/>
<path d="M193.429 166.315H186.777V172.967H193.429V166.315Z" fill="white"/>
<path d="M206.719 166.315H200.066V172.967H206.719V166.315Z" fill="white"/>
<path d="M213.4 166.315H206.748V172.967H213.4V166.315Z" fill="white"/>
<path d="M60.3289 172.967H53.6766V179.619H60.3289V172.967Z" fill="white"/>
<path d="M80.3592 172.96H73.7069V179.612H80.3592V172.96Z" fill="white"/>
<path d="M86.9665 172.967H80.3142V179.619H86.9665V172.967Z" fill="white"/>
<path d="M93.663 172.967H87.0107V179.619H93.663V172.967Z" fill="white"/>
<path d="M100.315 172.967H93.6626V179.619H100.315V172.967Z" fill="white"/>
<path d="M106.982 172.967H100.33V179.619H106.982V172.967Z" fill="white"/>
<path d="M113.619 172.967H106.967V179.619H113.619V172.967Z" fill="white"/>
<path d="M126.879 172.967H120.227V179.619H126.879V172.967Z" fill="white"/>
<path d="M133.56 172.967H126.908V179.619H133.56V172.967Z" fill="white"/>
<path d="M140.212 172.967H133.56V179.619H140.212V172.967Z" fill="white"/>
<path d="M146.864 172.967H140.212V179.619H146.864V172.967Z" fill="white"/>
<path d="M160.139 172.967H153.487V179.619H160.139V172.967Z" fill="white"/>
<path d="M166.851 172.967H160.198V179.619H166.851V172.967Z" fill="white"/>
<path d="M180.11 172.967H173.458V179.619H180.11V172.967Z" fill="white"/>
<path d="M193.429 172.967H186.777V179.619H193.429V172.967Z" fill="white"/>
<path d="M206.719 172.967H200.066V179.619H206.719V172.967Z" fill="white"/>
<path d="M60.3289 179.619H53.6766V186.272H60.3289V179.619Z" fill="white"/>
<path d="M73.7067 179.619H67.0544V186.272H73.7067V179.619Z" fill="white"/>
<path d="M93.663 179.619H87.0107V186.272H93.663V179.619Z" fill="white"/>
<path d="M126.879 179.619H120.227V186.272H126.879V179.619Z" fill="white"/>
<path d="M133.56 179.619H126.908V186.272H133.56V179.619Z" fill="white"/>
<path d="M140.212 179.619H133.56V186.272H140.212V179.619Z" fill="white"/>
<path d="M160.139 179.619H153.487V186.272H160.139V179.619Z" fill="white"/>
<path d="M166.851 179.619H160.198V186.272H166.851V179.619Z" fill="white"/>
<path d="M193.429 179.619H186.777V186.272H193.429V179.619Z" fill="white"/>
<path d="M200.051 179.619H193.399V186.272H200.051V179.619Z" fill="white"/>
<path d="M206.719 179.619H200.066V186.272H206.719V179.619Z" fill="white"/>
<path d="M213.4 179.619H206.748V186.272H213.4V179.619Z" fill="white"/>
<path d="M220.007 179.619H213.355V186.272H220.007V179.619Z" fill="white"/>
<path d="M60.3289 186.264H53.6766V192.916H60.3289V186.264Z" fill="white"/>
<path d="M67.0404 186.264H60.3881V192.916H67.0404V186.264Z" fill="white"/>
<path d="M73.7067 186.264H67.0544V192.916H73.7067V186.264Z" fill="white"/>
<path d="M80.3592 186.264H73.7069V192.916H80.3592V186.264Z" fill="white"/>
<path d="M86.9665 186.264H80.3142V192.916H86.9665V186.264Z" fill="white"/>
<path d="M100.315 186.264H93.6626V192.916H100.315V186.264Z" fill="white"/>
<path d="M140.212 186.264H133.56V192.916H140.212V186.264Z" fill="white"/>
<path d="M153.532 186.264H146.88V192.916H153.532V186.264Z" fill="white"/>
<path d="M160.139 186.264H153.487V192.916H160.139V186.264Z" fill="white"/>
<path d="M166.851 186.264H160.198V192.916H166.851V186.264Z" fill="white"/>
<path d="M173.458 186.264H166.806V192.916H173.458V186.264Z" fill="white"/>
<path d="M180.11 186.264H173.458V192.916H180.11V186.264Z" fill="white"/>
<path d="M186.807 186.264H180.155V192.916H186.807V186.264Z" fill="white"/>
<path d="M193.429 186.264H186.777V192.916H193.429V186.264Z" fill="white"/>
<path d="M60.3289 192.916H53.6766V199.568H60.3289V192.916Z" fill="white"/>
<path d="M67.0404 192.916H60.3881V199.568H67.0404V192.916Z" fill="white"/>
<path d="M80.3592 192.916H73.7069V199.568H80.3592V192.916Z" fill="white"/>
<path d="M93.663 192.916H87.0107V199.568H93.663V192.916Z" fill="white"/>
<path d="M106.982 192.916H100.33V199.568H106.982V192.916Z" fill="white"/>
<path d="M120.242 192.916H113.589V199.568H120.242V192.916Z" fill="white"/>
<path d="M133.56 192.916H126.908V199.568H133.56V192.916Z" fill="white"/>
<path d="M140.212 192.916H133.56V199.568H140.212V192.916Z" fill="white"/>
<path d="M146.864 192.916H140.212V199.568H146.864V192.916Z" fill="white"/>
<path d="M153.532 192.916H146.88V199.568H153.532V192.916Z" fill="white"/>
<path d="M160.139 192.916H153.487V199.568H160.139V192.916Z" fill="white"/>
<path d="M166.851 192.916H160.198V199.568H166.851V192.916Z" fill="white"/>
<path d="M173.458 192.916H166.806V199.568H173.458V192.916Z" fill="white"/>
<path d="M186.807 192.916H180.155V199.568H186.807V192.916Z" fill="white"/>
<path d="M213.4 192.916H206.748V199.568H213.4V192.916Z" fill="white"/>
<path d="M220.007 192.916H213.355V199.568H220.007V192.916Z" fill="white"/>
<path d="M73.7067 199.568H67.0544V206.22H73.7067V199.568Z" fill="white"/>
<path d="M106.982 199.568H100.33V206.22H106.982V199.568Z" fill="white"/>
<path d="M113.619 199.568H106.967V206.22H113.619V199.568Z" fill="white"/>
<path d="M126.879 199.568H120.227V206.22H126.879V199.568Z" fill="white"/>
<path d="M133.56 199.568H126.908V206.22H133.56V199.568Z" fill="white"/>
<path d="M140.212 199.568H133.56V206.22H140.212V199.568Z" fill="white"/>
<path d="M146.864 199.568H140.212V206.22H146.864V199.568Z" fill="white"/>
<path d="M153.532 199.568H146.88V206.22H153.532V199.568Z" fill="white"/>
<path d="M160.139 199.568H153.487V206.22H160.139V199.568Z" fill="white"/>
<path d="M166.851 199.568H160.198V206.22H166.851V199.568Z" fill="white"/>
<path d="M186.807 199.568H180.155V206.22H186.807V199.568Z" fill="white"/>
<path d="M193.429 199.568H186.777V206.22H193.429V199.568Z" fill="white"/>
<path d="M206.719 199.568H200.066V206.22H206.719V199.568Z" fill="white"/>
<path d="M213.4 199.568H206.748V206.22H213.4V199.568Z" fill="white"/>
<path d="M220.007 199.568H213.355V206.22H220.007V199.568Z" fill="white"/>
<path d="M93.663 206.22H87.0107V212.872H93.663V206.22Z" fill="white"/>
<path d="M113.619 206.22H106.967V212.872H113.619V206.22Z" fill="white"/>
<path d="M133.56 206.22H126.908V212.872H133.56V206.22Z" fill="white"/>
<path d="M153.532 206.22H146.88V212.872H153.532V206.22Z" fill="white"/>
<path d="M186.807 206.22H180.155V212.872H186.807V206.22Z" fill="white"/>
<path d="M193.429 206.22H186.777V212.872H193.429V206.22Z" fill="white"/>
<path d="M200.051 206.22H193.399V212.872H200.051V206.22Z" fill="white"/>
<path d="M206.719 206.22H200.066V212.872H206.719V206.22Z" fill="white"/>
<path d="M213.4 206.22H206.748V212.872H213.4V206.22Z" fill="white"/>
<path d="M220.007 206.22H213.355V212.872H220.007V206.22Z" fill="white"/>
<path d="M60.3289 212.872H53.6766V219.524H60.3289V212.872Z" fill="white"/>
<path d="M67.0404 212.872H60.3881V219.524H67.0404V212.872Z" fill="white"/>
<path d="M80.3592 212.88H73.7069V219.532H80.3592V212.88Z" fill="white"/>
<path d="M106.982 212.872H100.33V219.524H106.982V212.872Z" fill="white"/>
<path d="M113.619 212.872H106.967V219.524H113.619V212.872Z" fill="white"/>
<path d="M120.242 212.872H113.589V219.524H120.242V212.872Z" fill="white"/>
<path d="M133.56 212.872H126.908V219.524H133.56V212.872Z" fill="white"/>
<path d="M160.139 212.872H153.487V219.524H160.139V212.872Z" fill="white"/>
<path d="M166.851 212.872H160.198V219.524H166.851V212.872Z" fill="white"/>
<path d="M180.11 212.872H173.458V219.524H180.11V212.872Z" fill="white"/>
<path d="M186.807 212.872H180.155V219.524H186.807V212.872Z" fill="white"/>
<path d="M193.429 212.872H186.777V219.524H193.429V212.872Z" fill="white"/>
<path d="M40.1004 -0.000976562H7.50419H0.519287V6.98393V39.5802V46.5651H7.50419H40.1004H47.0853V39.5802V6.98393V-0.000976562H40.1004ZM40.1004 39.5802H7.50419V6.98393H40.1004V39.5802Z" fill="white"/>
<path d="M213.083 -0.000976562H180.486H173.502V6.98393V39.5802V46.5651H180.486H213.083H220.068V39.5802V6.98393V-0.000976562H213.083ZM213.083 39.5802H180.486V6.98393H213.083V39.5802Z" fill="white"/>
<path d="M40.1004 172.968H7.50419H0.519287V179.952V212.549V219.534H7.50419H40.1004H47.0853V212.549V179.952V172.968H40.1004ZM40.1004 212.549H7.50419V179.952H40.1004V212.549Z" fill="white"/>
<path d="M33.78 13.3105H13.8231V33.2674H33.78V13.3105Z" fill="white"/>
<path d="M206.734 13.3105H186.777V33.2674H206.734V13.3105Z" fill="white"/>
<path d="M33.78 186.264H13.8231V206.221H33.78V186.264Z" fill="white"/>
</svg>
